%TF.GenerationSoftware,KiCad,Pcbnew,10.0.5*%
%TF.CreationDate,2026-08-09T23:56:19+03:00*%
%TF.ProjectId,2FA Key,32464120-4b65-4792-9e6b-696361645f70,rev?*%
%TF.SameCoordinates,Original*%
%TF.FileFunction,Legend,Bot*%
%TF.FilePolarity,Positive*%
%FSLAX46Y46*%
G04 Gerber Fmt 4.6, Leading zero omitted, Abs format (unit mm)*
G04 Created by KiCad (PCBNEW 10.0.5) date 2026-08-09 23:56:19*
%MOMM*%
%LPD*%
G01*
G04 APERTURE LIST*
%ADD10C,0.300000*%
G04 APERTURE END LIST*
D10*
X91266917Y-108193685D02*
X91195489Y-108122257D01*
X91195489Y-108122257D02*
X91052632Y-108050828D01*
X91052632Y-108050828D02*
X90695489Y-108050828D01*
X90695489Y-108050828D02*
X90552632Y-108122257D01*
X90552632Y-108122257D02*
X90481203Y-108193685D01*
X90481203Y-108193685D02*
X90409774Y-108336542D01*
X90409774Y-108336542D02*
X90409774Y-108479400D01*
X90409774Y-108479400D02*
X90481203Y-108693685D01*
X90481203Y-108693685D02*
X91338346Y-109550828D01*
X91338346Y-109550828D02*
X90409774Y-109550828D01*
X89266918Y-108765114D02*
X89766918Y-108765114D01*
X89766918Y-109550828D02*
X89766918Y-108050828D01*
X89766918Y-108050828D02*
X89052632Y-108050828D01*
X88552632Y-109122257D02*
X87838347Y-109122257D01*
X88695489Y-109550828D02*
X88195489Y-108050828D01*
X88195489Y-108050828D02*
X87695489Y-109550828D01*
X87195490Y-109550828D02*
X87195490Y-108050828D01*
X86338347Y-109550828D02*
X86981204Y-108693685D01*
X86338347Y-108050828D02*
X87195490Y-108907971D01*
X84766918Y-108050828D02*
X84266918Y-109550828D01*
X84266918Y-109550828D02*
X83766918Y-108050828D01*
X82481204Y-109550828D02*
X83338347Y-109550828D01*
X82909776Y-109550828D02*
X82909776Y-108050828D01*
X82909776Y-108050828D02*
X83052633Y-108265114D01*
X83052633Y-108265114D02*
X83195490Y-108407971D01*
X83195490Y-108407971D02*
X83338347Y-108479400D01*
X81909776Y-109122257D02*
X81195491Y-109122257D01*
X82052633Y-109550828D02*
X81552633Y-108050828D01*
X81552633Y-108050828D02*
X81052633Y-109550828D01*
X90695489Y-111515114D02*
X90481203Y-111586542D01*
X90481203Y-111586542D02*
X90409774Y-111657971D01*
X90409774Y-111657971D02*
X90338346Y-111800828D01*
X90338346Y-111800828D02*
X90338346Y-112015114D01*
X90338346Y-112015114D02*
X90409774Y-112157971D01*
X90409774Y-112157971D02*
X90481203Y-112229400D01*
X90481203Y-112229400D02*
X90624060Y-112300828D01*
X90624060Y-112300828D02*
X91195489Y-112300828D01*
X91195489Y-112300828D02*
X91195489Y-110800828D01*
X91195489Y-110800828D02*
X90695489Y-110800828D01*
X90695489Y-110800828D02*
X90552632Y-110872257D01*
X90552632Y-110872257D02*
X90481203Y-110943685D01*
X90481203Y-110943685D02*
X90409774Y-111086542D01*
X90409774Y-111086542D02*
X90409774Y-111229400D01*
X90409774Y-111229400D02*
X90481203Y-111372257D01*
X90481203Y-111372257D02*
X90552632Y-111443685D01*
X90552632Y-111443685D02*
X90695489Y-111515114D01*
X90695489Y-111515114D02*
X91195489Y-111515114D01*
X89838346Y-111300828D02*
X89481203Y-112300828D01*
X89124060Y-111300828D02*
X89481203Y-112300828D01*
X89481203Y-112300828D02*
X89624060Y-112657971D01*
X89624060Y-112657971D02*
X89695489Y-112729400D01*
X89695489Y-112729400D02*
X89838346Y-112800828D01*
X86481203Y-111586542D02*
X86552632Y-111515114D01*
X86552632Y-111515114D02*
X86695489Y-111443685D01*
X86695489Y-111443685D02*
X86838346Y-111443685D01*
X86838346Y-111443685D02*
X86981203Y-111515114D01*
X86981203Y-111515114D02*
X87052632Y-111586542D01*
X87052632Y-111586542D02*
X87124060Y-111729400D01*
X87124060Y-111729400D02*
X87124060Y-111872257D01*
X87124060Y-111872257D02*
X87052632Y-112015114D01*
X87052632Y-112015114D02*
X86981203Y-112086542D01*
X86981203Y-112086542D02*
X86838346Y-112157971D01*
X86838346Y-112157971D02*
X86695489Y-112157971D01*
X86695489Y-112157971D02*
X86552632Y-112086542D01*
X86552632Y-112086542D02*
X86481203Y-112015114D01*
X86481203Y-111443685D02*
X86481203Y-112015114D01*
X86481203Y-112015114D02*
X86409775Y-112086542D01*
X86409775Y-112086542D02*
X86338346Y-112086542D01*
X86338346Y-112086542D02*
X86195489Y-112015114D01*
X86195489Y-112015114D02*
X86124060Y-111872257D01*
X86124060Y-111872257D02*
X86124060Y-111515114D01*
X86124060Y-111515114D02*
X86266918Y-111300828D01*
X86266918Y-111300828D02*
X86481203Y-111157971D01*
X86481203Y-111157971D02*
X86766918Y-111086542D01*
X86766918Y-111086542D02*
X87052632Y-111157971D01*
X87052632Y-111157971D02*
X87266918Y-111300828D01*
X87266918Y-111300828D02*
X87409775Y-111515114D01*
X87409775Y-111515114D02*
X87481203Y-111800828D01*
X87481203Y-111800828D02*
X87409775Y-112086542D01*
X87409775Y-112086542D02*
X87266918Y-112300828D01*
X87266918Y-112300828D02*
X87052632Y-112443685D01*
X87052632Y-112443685D02*
X86766918Y-112515114D01*
X86766918Y-112515114D02*
X86481203Y-112443685D01*
X86481203Y-112443685D02*
X86266918Y-112300828D01*
X85481204Y-112300828D02*
X85481204Y-110800828D01*
X85481204Y-110800828D02*
X84909775Y-110800828D01*
X84909775Y-110800828D02*
X84766918Y-110872257D01*
X84766918Y-110872257D02*
X84695489Y-110943685D01*
X84695489Y-110943685D02*
X84624061Y-111086542D01*
X84624061Y-111086542D02*
X84624061Y-111300828D01*
X84624061Y-111300828D02*
X84695489Y-111443685D01*
X84695489Y-111443685D02*
X84766918Y-111515114D01*
X84766918Y-111515114D02*
X84909775Y-111586542D01*
X84909775Y-111586542D02*
X85481204Y-111586542D01*
X83338347Y-112300828D02*
X83338347Y-111515114D01*
X83338347Y-111515114D02*
X83409775Y-111372257D01*
X83409775Y-111372257D02*
X83552632Y-111300828D01*
X83552632Y-111300828D02*
X83838347Y-111300828D01*
X83838347Y-111300828D02*
X83981204Y-111372257D01*
X83338347Y-112229400D02*
X83481204Y-112300828D01*
X83481204Y-112300828D02*
X83838347Y-112300828D01*
X83838347Y-112300828D02*
X83981204Y-112229400D01*
X83981204Y-112229400D02*
X84052632Y-112086542D01*
X84052632Y-112086542D02*
X84052632Y-111943685D01*
X84052632Y-111943685D02*
X83981204Y-111800828D01*
X83981204Y-111800828D02*
X83838347Y-111729400D01*
X83838347Y-111729400D02*
X83481204Y-111729400D01*
X83481204Y-111729400D02*
X83338347Y-111657971D01*
X82624061Y-111300828D02*
X82624061Y-112800828D01*
X82624061Y-111372257D02*
X82481204Y-111300828D01*
X82481204Y-111300828D02*
X82195489Y-111300828D01*
X82195489Y-111300828D02*
X82052632Y-111372257D01*
X82052632Y-111372257D02*
X81981204Y-111443685D01*
X81981204Y-111443685D02*
X81909775Y-111586542D01*
X81909775Y-111586542D02*
X81909775Y-112015114D01*
X81909775Y-112015114D02*
X81981204Y-112157971D01*
X81981204Y-112157971D02*
X82052632Y-112229400D01*
X82052632Y-112229400D02*
X82195489Y-112300828D01*
X82195489Y-112300828D02*
X82481204Y-112300828D01*
X82481204Y-112300828D02*
X82624061Y-112229400D01*
X80624061Y-112300828D02*
X80624061Y-111515114D01*
X80624061Y-111515114D02*
X80695489Y-111372257D01*
X80695489Y-111372257D02*
X80838346Y-111300828D01*
X80838346Y-111300828D02*
X81124061Y-111300828D01*
X81124061Y-111300828D02*
X81266918Y-111372257D01*
X80624061Y-112229400D02*
X80766918Y-112300828D01*
X80766918Y-112300828D02*
X81124061Y-112300828D01*
X81124061Y-112300828D02*
X81266918Y-112229400D01*
X81266918Y-112229400D02*
X81338346Y-112086542D01*
X81338346Y-112086542D02*
X81338346Y-111943685D01*
X81338346Y-111943685D02*
X81266918Y-111800828D01*
X81266918Y-111800828D02*
X81124061Y-111729400D01*
X81124061Y-111729400D02*
X80766918Y-111729400D01*
X80766918Y-111729400D02*
X80624061Y-111657971D01*
X80124060Y-111300828D02*
X79552632Y-111300828D01*
X79909775Y-110800828D02*
X79909775Y-112086542D01*
X79909775Y-112086542D02*
X79838346Y-112229400D01*
X79838346Y-112229400D02*
X79695489Y-112300828D01*
X79695489Y-112300828D02*
X79552632Y-112300828D01*
X79052632Y-112300828D02*
X79052632Y-110800828D01*
X78409775Y-112300828D02*
X78409775Y-111515114D01*
X78409775Y-111515114D02*
X78481203Y-111372257D01*
X78481203Y-111372257D02*
X78624060Y-111300828D01*
X78624060Y-111300828D02*
X78838346Y-111300828D01*
X78838346Y-111300828D02*
X78981203Y-111372257D01*
X78981203Y-111372257D02*
X79052632Y-111443685D01*
X77481203Y-112300828D02*
X77624060Y-112229400D01*
X77624060Y-112229400D02*
X77695489Y-112157971D01*
X77695489Y-112157971D02*
X77766917Y-112015114D01*
X77766917Y-112015114D02*
X77766917Y-111586542D01*
X77766917Y-111586542D02*
X77695489Y-111443685D01*
X77695489Y-111443685D02*
X77624060Y-111372257D01*
X77624060Y-111372257D02*
X77481203Y-111300828D01*
X77481203Y-111300828D02*
X77266917Y-111300828D01*
X77266917Y-111300828D02*
X77124060Y-111372257D01*
X77124060Y-111372257D02*
X77052632Y-111443685D01*
X77052632Y-111443685D02*
X76981203Y-111586542D01*
X76981203Y-111586542D02*
X76981203Y-112015114D01*
X76981203Y-112015114D02*
X77052632Y-112157971D01*
X77052632Y-112157971D02*
X77124060Y-112229400D01*
X77124060Y-112229400D02*
X77266917Y-112300828D01*
X77266917Y-112300828D02*
X77481203Y-112300828D01*
X75695489Y-111300828D02*
X75695489Y-112300828D01*
X76338346Y-111300828D02*
X76338346Y-112086542D01*
X76338346Y-112086542D02*
X76266917Y-112229400D01*
X76266917Y-112229400D02*
X76124060Y-112300828D01*
X76124060Y-112300828D02*
X75909774Y-112300828D01*
X75909774Y-112300828D02*
X75766917Y-112229400D01*
X75766917Y-112229400D02*
X75695489Y-112157971D01*
X74338346Y-111300828D02*
X74338346Y-112515114D01*
X74338346Y-112515114D02*
X74409774Y-112657971D01*
X74409774Y-112657971D02*
X74481203Y-112729400D01*
X74481203Y-112729400D02*
X74624060Y-112800828D01*
X74624060Y-112800828D02*
X74838346Y-112800828D01*
X74838346Y-112800828D02*
X74981203Y-112729400D01*
X74338346Y-112229400D02*
X74481203Y-112300828D01*
X74481203Y-112300828D02*
X74766917Y-112300828D01*
X74766917Y-112300828D02*
X74909774Y-112229400D01*
X74909774Y-112229400D02*
X74981203Y-112157971D01*
X74981203Y-112157971D02*
X75052631Y-112015114D01*
X75052631Y-112015114D02*
X75052631Y-111586542D01*
X75052631Y-111586542D02*
X74981203Y-111443685D01*
X74981203Y-111443685D02*
X74909774Y-111372257D01*
X74909774Y-111372257D02*
X74766917Y-111300828D01*
X74766917Y-111300828D02*
X74481203Y-111300828D01*
X74481203Y-111300828D02*
X74338346Y-111372257D01*
X73624060Y-112300828D02*
X73624060Y-110800828D01*
X72981203Y-112300828D02*
X72981203Y-111515114D01*
X72981203Y-111515114D02*
X73052631Y-111372257D01*
X73052631Y-111372257D02*
X73195488Y-111300828D01*
X73195488Y-111300828D02*
X73409774Y-111300828D01*
X73409774Y-111300828D02*
X73552631Y-111372257D01*
X73552631Y-111372257D02*
X73624060Y-111443685D01*
X72481202Y-111300828D02*
X71909774Y-111300828D01*
X72266917Y-110800828D02*
X72266917Y-112086542D01*
X72266917Y-112086542D02*
X72195488Y-112229400D01*
X72195488Y-112229400D02*
X72052631Y-112300828D01*
X72052631Y-112300828D02*
X71909774Y-112300828D01*
X91195489Y-114975828D02*
X91195489Y-113975828D01*
X91195489Y-114118685D02*
X91124060Y-114047257D01*
X91124060Y-114047257D02*
X90981203Y-113975828D01*
X90981203Y-113975828D02*
X90766917Y-113975828D01*
X90766917Y-113975828D02*
X90624060Y-114047257D01*
X90624060Y-114047257D02*
X90552632Y-114190114D01*
X90552632Y-114190114D02*
X90552632Y-114975828D01*
X90552632Y-114190114D02*
X90481203Y-114047257D01*
X90481203Y-114047257D02*
X90338346Y-113975828D01*
X90338346Y-113975828D02*
X90124060Y-113975828D01*
X90124060Y-113975828D02*
X89981203Y-114047257D01*
X89981203Y-114047257D02*
X89909774Y-114190114D01*
X89909774Y-114190114D02*
X89909774Y-114975828D01*
X88552632Y-113975828D02*
X88552632Y-114975828D01*
X89195489Y-113975828D02*
X89195489Y-114761542D01*
X89195489Y-114761542D02*
X89124060Y-114904400D01*
X89124060Y-114904400D02*
X88981203Y-114975828D01*
X88981203Y-114975828D02*
X88766917Y-114975828D01*
X88766917Y-114975828D02*
X88624060Y-114904400D01*
X88624060Y-114904400D02*
X88552632Y-114832971D01*
X87838346Y-114975828D02*
X87838346Y-113975828D01*
X87838346Y-114261542D02*
X87766917Y-114118685D01*
X87766917Y-114118685D02*
X87695489Y-114047257D01*
X87695489Y-114047257D02*
X87552631Y-113975828D01*
X87552631Y-113975828D02*
X87409774Y-113975828D01*
X86266918Y-113975828D02*
X86266918Y-114975828D01*
X86909775Y-113975828D02*
X86909775Y-114761542D01*
X86909775Y-114761542D02*
X86838346Y-114904400D01*
X86838346Y-114904400D02*
X86695489Y-114975828D01*
X86695489Y-114975828D02*
X86481203Y-114975828D01*
X86481203Y-114975828D02*
X86338346Y-114904400D01*
X86338346Y-114904400D02*
X86266918Y-114832971D01*
X85552632Y-114832971D02*
X85481203Y-114904400D01*
X85481203Y-114904400D02*
X85552632Y-114975828D01*
X85552632Y-114975828D02*
X85624060Y-114904400D01*
X85624060Y-114904400D02*
X85552632Y-114832971D01*
X85552632Y-114832971D02*
X85552632Y-114975828D01*
X84195489Y-113975828D02*
X84195489Y-115190114D01*
X84195489Y-115190114D02*
X84266917Y-115332971D01*
X84266917Y-115332971D02*
X84338346Y-115404400D01*
X84338346Y-115404400D02*
X84481203Y-115475828D01*
X84481203Y-115475828D02*
X84695489Y-115475828D01*
X84695489Y-115475828D02*
X84838346Y-115404400D01*
X84195489Y-114904400D02*
X84338346Y-114975828D01*
X84338346Y-114975828D02*
X84624060Y-114975828D01*
X84624060Y-114975828D02*
X84766917Y-114904400D01*
X84766917Y-114904400D02*
X84838346Y-114832971D01*
X84838346Y-114832971D02*
X84909774Y-114690114D01*
X84909774Y-114690114D02*
X84909774Y-114261542D01*
X84909774Y-114261542D02*
X84838346Y-114118685D01*
X84838346Y-114118685D02*
X84766917Y-114047257D01*
X84766917Y-114047257D02*
X84624060Y-113975828D01*
X84624060Y-113975828D02*
X84338346Y-113975828D01*
X84338346Y-113975828D02*
X84195489Y-114047257D01*
X83266917Y-114975828D02*
X83409774Y-114904400D01*
X83409774Y-114904400D02*
X83481203Y-114761542D01*
X83481203Y-114761542D02*
X83481203Y-113475828D01*
X82481203Y-114975828D02*
X82624060Y-114904400D01*
X82624060Y-114904400D02*
X82695489Y-114832971D01*
X82695489Y-114832971D02*
X82766917Y-114690114D01*
X82766917Y-114690114D02*
X82766917Y-114261542D01*
X82766917Y-114261542D02*
X82695489Y-114118685D01*
X82695489Y-114118685D02*
X82624060Y-114047257D01*
X82624060Y-114047257D02*
X82481203Y-113975828D01*
X82481203Y-113975828D02*
X82266917Y-113975828D01*
X82266917Y-113975828D02*
X82124060Y-114047257D01*
X82124060Y-114047257D02*
X82052632Y-114118685D01*
X82052632Y-114118685D02*
X81981203Y-114261542D01*
X81981203Y-114261542D02*
X81981203Y-114690114D01*
X81981203Y-114690114D02*
X82052632Y-114832971D01*
X82052632Y-114832971D02*
X82124060Y-114904400D01*
X82124060Y-114904400D02*
X82266917Y-114975828D01*
X82266917Y-114975828D02*
X82481203Y-114975828D01*
X81338346Y-114975828D02*
X81338346Y-113475828D01*
X81338346Y-114047257D02*
X81195489Y-113975828D01*
X81195489Y-113975828D02*
X80909774Y-113975828D01*
X80909774Y-113975828D02*
X80766917Y-114047257D01*
X80766917Y-114047257D02*
X80695489Y-114118685D01*
X80695489Y-114118685D02*
X80624060Y-114261542D01*
X80624060Y-114261542D02*
X80624060Y-114690114D01*
X80624060Y-114690114D02*
X80695489Y-114832971D01*
X80695489Y-114832971D02*
X80766917Y-114904400D01*
X80766917Y-114904400D02*
X80909774Y-114975828D01*
X80909774Y-114975828D02*
X81195489Y-114975828D01*
X81195489Y-114975828D02*
X81338346Y-114904400D01*
X79338346Y-114975828D02*
X79338346Y-114190114D01*
X79338346Y-114190114D02*
X79409774Y-114047257D01*
X79409774Y-114047257D02*
X79552631Y-113975828D01*
X79552631Y-113975828D02*
X79838346Y-113975828D01*
X79838346Y-113975828D02*
X79981203Y-114047257D01*
X79338346Y-114904400D02*
X79481203Y-114975828D01*
X79481203Y-114975828D02*
X79838346Y-114975828D01*
X79838346Y-114975828D02*
X79981203Y-114904400D01*
X79981203Y-114904400D02*
X80052631Y-114761542D01*
X80052631Y-114761542D02*
X80052631Y-114618685D01*
X80052631Y-114618685D02*
X79981203Y-114475828D01*
X79981203Y-114475828D02*
X79838346Y-114404400D01*
X79838346Y-114404400D02*
X79481203Y-114404400D01*
X79481203Y-114404400D02*
X79338346Y-114332971D01*
X78409774Y-114975828D02*
X78552631Y-114904400D01*
X78552631Y-114904400D02*
X78624060Y-114761542D01*
X78624060Y-114761542D02*
X78624060Y-113475828D01*
M02*
