M48
; DRILL file KiCad 10.0.5 date 2026-08-09T23:56:21
; FORMAT={-:-/ absolute / metric / decimal}
; #@! TF.CreationDate,2026-08-09T23:56:21+03:00
; #@! TF.GenerationSoftware,Kicad,Pcbnew,10.0.5
; #@! TF.FileFunction,Plated,1,2,PTH
FMAT,2
METRIC
; #@! TA.AperFunction,Plated,PTH,ViaDrill
T1C0.300
%
G90
G05
T1
X61.0Y-107.5
X61.75Y-112.5
X61.75Y-114.0
X62.75Y-109.0
X65.043Y-109.0
X65.6Y-116.45
X67.0Y-103.25
X67.062Y-112.188
X69.292Y-109.25
X69.75Y-107.0
X69.75Y-110.75
X73.05Y-111.2
X74.062Y-109.312
X74.062Y-113.0
X74.75Y-117.25
X74.75Y-118.5
X75.75Y-120.0
X76.0Y-104.75
X76.0Y-108.75
X76.0Y-110.25
X76.0Y-115.0
X76.5Y-112.0
X77.0Y-113.0
X77.3Y-106.6
X78.0Y-113.5
X80.25Y-113.675
X82.0Y-117.0
X82.75Y-106.25
X86.0Y-116.0
X86.112Y-113.587
X86.8Y-108.4
X86.8Y-110.5
X86.9Y-104.0
X86.9Y-106.2
X87.25Y-116.0
X88.5Y-119.0
X89.0Y-105.25
X92.1Y-106.8
X92.15Y-112.75
M30
