%TF.GenerationSoftware,KiCad,Pcbnew,10.0.5*%
%TF.CreationDate,2026-08-09T23:56:19+03:00*%
%TF.ProjectId,2FA Key,32464120-4b65-4792-9e6b-696361645f70,rev?*%
%TF.SameCoordinates,Original*%
%TF.FileFunction,Legend,Top*%
%TF.FilePolarity,Positive*%
%FSLAX46Y46*%
G04 Gerber Fmt 4.6, Leading zero omitted, Abs format (unit mm)*
G04 Created by KiCad (PCBNEW 10.0.5) date 2026-08-09 23:56:19*
%MOMM*%
%LPD*%
G01*
G04 APERTURE LIST*
%ADD10C,0.300000*%
%ADD11C,0.150000*%
%ADD12C,0.120000*%
%ADD13C,0.127000*%
G04 APERTURE END LIST*
D10*
X64239171Y-109630225D02*
X62739171Y-110130225D01*
X62739171Y-110130225D02*
X64239171Y-110630225D01*
X62739171Y-111915939D02*
X62739171Y-111058796D01*
X62739171Y-111487367D02*
X64239171Y-111487367D01*
X64239171Y-111487367D02*
X64024885Y-111344510D01*
X64024885Y-111344510D02*
X63882028Y-111201653D01*
X63882028Y-111201653D02*
X63810600Y-111058796D01*
X63167742Y-112487367D02*
X63167742Y-113201653D01*
X62739171Y-112344510D02*
X64239171Y-112844510D01*
X64239171Y-112844510D02*
X62739171Y-113344510D01*
D11*
X66875833Y-107704819D02*
X66542500Y-107228628D01*
X66304405Y-107704819D02*
X66304405Y-106704819D01*
X66304405Y-106704819D02*
X66685357Y-106704819D01*
X66685357Y-106704819D02*
X66780595Y-106752438D01*
X66780595Y-106752438D02*
X66828214Y-106800057D01*
X66828214Y-106800057D02*
X66875833Y-106895295D01*
X66875833Y-106895295D02*
X66875833Y-107038152D01*
X66875833Y-107038152D02*
X66828214Y-107133390D01*
X66828214Y-107133390D02*
X66780595Y-107181009D01*
X66780595Y-107181009D02*
X66685357Y-107228628D01*
X66685357Y-107228628D02*
X66304405Y-107228628D01*
X67828214Y-107704819D02*
X67256786Y-107704819D01*
X67542500Y-107704819D02*
X67542500Y-106704819D01*
X67542500Y-106704819D02*
X67447262Y-106847676D01*
X67447262Y-106847676D02*
X67352024Y-106942914D01*
X67352024Y-106942914D02*
X67256786Y-106990533D01*
X75409580Y-119279166D02*
X75457200Y-119326785D01*
X75457200Y-119326785D02*
X75504819Y-119469642D01*
X75504819Y-119469642D02*
X75504819Y-119564880D01*
X75504819Y-119564880D02*
X75457200Y-119707737D01*
X75457200Y-119707737D02*
X75361961Y-119802975D01*
X75361961Y-119802975D02*
X75266723Y-119850594D01*
X75266723Y-119850594D02*
X75076247Y-119898213D01*
X75076247Y-119898213D02*
X74933390Y-119898213D01*
X74933390Y-119898213D02*
X74742914Y-119850594D01*
X74742914Y-119850594D02*
X74647676Y-119802975D01*
X74647676Y-119802975D02*
X74552438Y-119707737D01*
X74552438Y-119707737D02*
X74504819Y-119564880D01*
X74504819Y-119564880D02*
X74504819Y-119469642D01*
X74504819Y-119469642D02*
X74552438Y-119326785D01*
X74552438Y-119326785D02*
X74600057Y-119279166D01*
X74933390Y-118707737D02*
X74885771Y-118802975D01*
X74885771Y-118802975D02*
X74838152Y-118850594D01*
X74838152Y-118850594D02*
X74742914Y-118898213D01*
X74742914Y-118898213D02*
X74695295Y-118898213D01*
X74695295Y-118898213D02*
X74600057Y-118850594D01*
X74600057Y-118850594D02*
X74552438Y-118802975D01*
X74552438Y-118802975D02*
X74504819Y-118707737D01*
X74504819Y-118707737D02*
X74504819Y-118517261D01*
X74504819Y-118517261D02*
X74552438Y-118422023D01*
X74552438Y-118422023D02*
X74600057Y-118374404D01*
X74600057Y-118374404D02*
X74695295Y-118326785D01*
X74695295Y-118326785D02*
X74742914Y-118326785D01*
X74742914Y-118326785D02*
X74838152Y-118374404D01*
X74838152Y-118374404D02*
X74885771Y-118422023D01*
X74885771Y-118422023D02*
X74933390Y-118517261D01*
X74933390Y-118517261D02*
X74933390Y-118707737D01*
X74933390Y-118707737D02*
X74981009Y-118802975D01*
X74981009Y-118802975D02*
X75028628Y-118850594D01*
X75028628Y-118850594D02*
X75123866Y-118898213D01*
X75123866Y-118898213D02*
X75314342Y-118898213D01*
X75314342Y-118898213D02*
X75409580Y-118850594D01*
X75409580Y-118850594D02*
X75457200Y-118802975D01*
X75457200Y-118802975D02*
X75504819Y-118707737D01*
X75504819Y-118707737D02*
X75504819Y-118517261D01*
X75504819Y-118517261D02*
X75457200Y-118422023D01*
X75457200Y-118422023D02*
X75409580Y-118374404D01*
X75409580Y-118374404D02*
X75314342Y-118326785D01*
X75314342Y-118326785D02*
X75123866Y-118326785D01*
X75123866Y-118326785D02*
X75028628Y-118374404D01*
X75028628Y-118374404D02*
X74981009Y-118422023D01*
X74981009Y-118422023D02*
X74933390Y-118517261D01*
X80174819Y-117766666D02*
X79698628Y-118099999D01*
X80174819Y-118338094D02*
X79174819Y-118338094D01*
X79174819Y-118338094D02*
X79174819Y-117957142D01*
X79174819Y-117957142D02*
X79222438Y-117861904D01*
X79222438Y-117861904D02*
X79270057Y-117814285D01*
X79270057Y-117814285D02*
X79365295Y-117766666D01*
X79365295Y-117766666D02*
X79508152Y-117766666D01*
X79508152Y-117766666D02*
X79603390Y-117814285D01*
X79603390Y-117814285D02*
X79651009Y-117861904D01*
X79651009Y-117861904D02*
X79698628Y-117957142D01*
X79698628Y-117957142D02*
X79698628Y-118338094D01*
X79508152Y-116909523D02*
X80174819Y-116909523D01*
X79127200Y-117147618D02*
X79841485Y-117385713D01*
X79841485Y-117385713D02*
X79841485Y-116766666D01*
X87733333Y-106431455D02*
X87685714Y-106479075D01*
X87685714Y-106479075D02*
X87542857Y-106526694D01*
X87542857Y-106526694D02*
X87447619Y-106526694D01*
X87447619Y-106526694D02*
X87304762Y-106479075D01*
X87304762Y-106479075D02*
X87209524Y-106383836D01*
X87209524Y-106383836D02*
X87161905Y-106288598D01*
X87161905Y-106288598D02*
X87114286Y-106098122D01*
X87114286Y-106098122D02*
X87114286Y-105955265D01*
X87114286Y-105955265D02*
X87161905Y-105764789D01*
X87161905Y-105764789D02*
X87209524Y-105669551D01*
X87209524Y-105669551D02*
X87304762Y-105574313D01*
X87304762Y-105574313D02*
X87447619Y-105526694D01*
X87447619Y-105526694D02*
X87542857Y-105526694D01*
X87542857Y-105526694D02*
X87685714Y-105574313D01*
X87685714Y-105574313D02*
X87733333Y-105621932D01*
X88638095Y-105526694D02*
X88161905Y-105526694D01*
X88161905Y-105526694D02*
X88114286Y-106002884D01*
X88114286Y-106002884D02*
X88161905Y-105955265D01*
X88161905Y-105955265D02*
X88257143Y-105907646D01*
X88257143Y-105907646D02*
X88495238Y-105907646D01*
X88495238Y-105907646D02*
X88590476Y-105955265D01*
X88590476Y-105955265D02*
X88638095Y-106002884D01*
X88638095Y-106002884D02*
X88685714Y-106098122D01*
X88685714Y-106098122D02*
X88685714Y-106336217D01*
X88685714Y-106336217D02*
X88638095Y-106431455D01*
X88638095Y-106431455D02*
X88590476Y-106479075D01*
X88590476Y-106479075D02*
X88495238Y-106526694D01*
X88495238Y-106526694D02*
X88257143Y-106526694D01*
X88257143Y-106526694D02*
X88161905Y-106479075D01*
X88161905Y-106479075D02*
X88114286Y-106431455D01*
X87793333Y-110875205D02*
X87745714Y-110922825D01*
X87745714Y-110922825D02*
X87602857Y-110970444D01*
X87602857Y-110970444D02*
X87507619Y-110970444D01*
X87507619Y-110970444D02*
X87364762Y-110922825D01*
X87364762Y-110922825D02*
X87269524Y-110827586D01*
X87269524Y-110827586D02*
X87221905Y-110732348D01*
X87221905Y-110732348D02*
X87174286Y-110541872D01*
X87174286Y-110541872D02*
X87174286Y-110399015D01*
X87174286Y-110399015D02*
X87221905Y-110208539D01*
X87221905Y-110208539D02*
X87269524Y-110113301D01*
X87269524Y-110113301D02*
X87364762Y-110018063D01*
X87364762Y-110018063D02*
X87507619Y-109970444D01*
X87507619Y-109970444D02*
X87602857Y-109970444D01*
X87602857Y-109970444D02*
X87745714Y-110018063D01*
X87745714Y-110018063D02*
X87793333Y-110065682D01*
X88126667Y-109970444D02*
X88745714Y-109970444D01*
X88745714Y-109970444D02*
X88412381Y-110351396D01*
X88412381Y-110351396D02*
X88555238Y-110351396D01*
X88555238Y-110351396D02*
X88650476Y-110399015D01*
X88650476Y-110399015D02*
X88698095Y-110446634D01*
X88698095Y-110446634D02*
X88745714Y-110541872D01*
X88745714Y-110541872D02*
X88745714Y-110779967D01*
X88745714Y-110779967D02*
X88698095Y-110875205D01*
X88698095Y-110875205D02*
X88650476Y-110922825D01*
X88650476Y-110922825D02*
X88555238Y-110970444D01*
X88555238Y-110970444D02*
X88269524Y-110970444D01*
X88269524Y-110970444D02*
X88174286Y-110922825D01*
X88174286Y-110922825D02*
X88126667Y-110875205D01*
X92716666Y-116554819D02*
X92716666Y-117269104D01*
X92716666Y-117269104D02*
X92669047Y-117411961D01*
X92669047Y-117411961D02*
X92573809Y-117507200D01*
X92573809Y-117507200D02*
X92430952Y-117554819D01*
X92430952Y-117554819D02*
X92335714Y-117554819D01*
X93145238Y-116650057D02*
X93192857Y-116602438D01*
X93192857Y-116602438D02*
X93288095Y-116554819D01*
X93288095Y-116554819D02*
X93526190Y-116554819D01*
X93526190Y-116554819D02*
X93621428Y-116602438D01*
X93621428Y-116602438D02*
X93669047Y-116650057D01*
X93669047Y-116650057D02*
X93716666Y-116745295D01*
X93716666Y-116745295D02*
X93716666Y-116840533D01*
X93716666Y-116840533D02*
X93669047Y-116983390D01*
X93669047Y-116983390D02*
X93097619Y-117554819D01*
X93097619Y-117554819D02*
X93716666Y-117554819D01*
X82444819Y-117866666D02*
X81968628Y-118199999D01*
X82444819Y-118438094D02*
X81444819Y-118438094D01*
X81444819Y-118438094D02*
X81444819Y-118057142D01*
X81444819Y-118057142D02*
X81492438Y-117961904D01*
X81492438Y-117961904D02*
X81540057Y-117914285D01*
X81540057Y-117914285D02*
X81635295Y-117866666D01*
X81635295Y-117866666D02*
X81778152Y-117866666D01*
X81778152Y-117866666D02*
X81873390Y-117914285D01*
X81873390Y-117914285D02*
X81921009Y-117961904D01*
X81921009Y-117961904D02*
X81968628Y-118057142D01*
X81968628Y-118057142D02*
X81968628Y-118438094D01*
X81540057Y-117485713D02*
X81492438Y-117438094D01*
X81492438Y-117438094D02*
X81444819Y-117342856D01*
X81444819Y-117342856D02*
X81444819Y-117104761D01*
X81444819Y-117104761D02*
X81492438Y-117009523D01*
X81492438Y-117009523D02*
X81540057Y-116961904D01*
X81540057Y-116961904D02*
X81635295Y-116914285D01*
X81635295Y-116914285D02*
X81730533Y-116914285D01*
X81730533Y-116914285D02*
X81873390Y-116961904D01*
X81873390Y-116961904D02*
X82444819Y-117533332D01*
X82444819Y-117533332D02*
X82444819Y-116914285D01*
X87923333Y-108633330D02*
X87875714Y-108680950D01*
X87875714Y-108680950D02*
X87732857Y-108728569D01*
X87732857Y-108728569D02*
X87637619Y-108728569D01*
X87637619Y-108728569D02*
X87494762Y-108680950D01*
X87494762Y-108680950D02*
X87399524Y-108585711D01*
X87399524Y-108585711D02*
X87351905Y-108490473D01*
X87351905Y-108490473D02*
X87304286Y-108299997D01*
X87304286Y-108299997D02*
X87304286Y-108157140D01*
X87304286Y-108157140D02*
X87351905Y-107966664D01*
X87351905Y-107966664D02*
X87399524Y-107871426D01*
X87399524Y-107871426D02*
X87494762Y-107776188D01*
X87494762Y-107776188D02*
X87637619Y-107728569D01*
X87637619Y-107728569D02*
X87732857Y-107728569D01*
X87732857Y-107728569D02*
X87875714Y-107776188D01*
X87875714Y-107776188D02*
X87923333Y-107823807D01*
X88780476Y-107728569D02*
X88590000Y-107728569D01*
X88590000Y-107728569D02*
X88494762Y-107776188D01*
X88494762Y-107776188D02*
X88447143Y-107823807D01*
X88447143Y-107823807D02*
X88351905Y-107966664D01*
X88351905Y-107966664D02*
X88304286Y-108157140D01*
X88304286Y-108157140D02*
X88304286Y-108538092D01*
X88304286Y-108538092D02*
X88351905Y-108633330D01*
X88351905Y-108633330D02*
X88399524Y-108680950D01*
X88399524Y-108680950D02*
X88494762Y-108728569D01*
X88494762Y-108728569D02*
X88685238Y-108728569D01*
X88685238Y-108728569D02*
X88780476Y-108680950D01*
X88780476Y-108680950D02*
X88828095Y-108633330D01*
X88828095Y-108633330D02*
X88875714Y-108538092D01*
X88875714Y-108538092D02*
X88875714Y-108299997D01*
X88875714Y-108299997D02*
X88828095Y-108204759D01*
X88828095Y-108204759D02*
X88780476Y-108157140D01*
X88780476Y-108157140D02*
X88685238Y-108109521D01*
X88685238Y-108109521D02*
X88494762Y-108109521D01*
X88494762Y-108109521D02*
X88399524Y-108157140D01*
X88399524Y-108157140D02*
X88351905Y-108204759D01*
X88351905Y-108204759D02*
X88304286Y-108299997D01*
X90541667Y-110157200D02*
X90684524Y-110204819D01*
X90684524Y-110204819D02*
X90922619Y-110204819D01*
X90922619Y-110204819D02*
X91017857Y-110157200D01*
X91017857Y-110157200D02*
X91065476Y-110109580D01*
X91065476Y-110109580D02*
X91113095Y-110014342D01*
X91113095Y-110014342D02*
X91113095Y-109919104D01*
X91113095Y-109919104D02*
X91065476Y-109823866D01*
X91065476Y-109823866D02*
X91017857Y-109776247D01*
X91017857Y-109776247D02*
X90922619Y-109728628D01*
X90922619Y-109728628D02*
X90732143Y-109681009D01*
X90732143Y-109681009D02*
X90636905Y-109633390D01*
X90636905Y-109633390D02*
X90589286Y-109585771D01*
X90589286Y-109585771D02*
X90541667Y-109490533D01*
X90541667Y-109490533D02*
X90541667Y-109395295D01*
X90541667Y-109395295D02*
X90589286Y-109300057D01*
X90589286Y-109300057D02*
X90636905Y-109252438D01*
X90636905Y-109252438D02*
X90732143Y-109204819D01*
X90732143Y-109204819D02*
X90970238Y-109204819D01*
X90970238Y-109204819D02*
X91113095Y-109252438D01*
X91446429Y-109204819D02*
X91684524Y-110204819D01*
X91684524Y-110204819D02*
X91875000Y-109490533D01*
X91875000Y-109490533D02*
X92065476Y-110204819D01*
X92065476Y-110204819D02*
X92303572Y-109204819D01*
X93208333Y-110204819D02*
X92636905Y-110204819D01*
X92922619Y-110204819D02*
X92922619Y-109204819D01*
X92922619Y-109204819D02*
X92827381Y-109347676D01*
X92827381Y-109347676D02*
X92732143Y-109442914D01*
X92732143Y-109442914D02*
X92636905Y-109490533D01*
X67261905Y-113204819D02*
X67261905Y-112204819D01*
X67261905Y-112204819D02*
X67500000Y-112204819D01*
X67500000Y-112204819D02*
X67642857Y-112252438D01*
X67642857Y-112252438D02*
X67738095Y-112347676D01*
X67738095Y-112347676D02*
X67785714Y-112442914D01*
X67785714Y-112442914D02*
X67833333Y-112633390D01*
X67833333Y-112633390D02*
X67833333Y-112776247D01*
X67833333Y-112776247D02*
X67785714Y-112966723D01*
X67785714Y-112966723D02*
X67738095Y-113061961D01*
X67738095Y-113061961D02*
X67642857Y-113157200D01*
X67642857Y-113157200D02*
X67500000Y-113204819D01*
X67500000Y-113204819D02*
X67261905Y-113204819D01*
X68785714Y-113204819D02*
X68214286Y-113204819D01*
X68500000Y-113204819D02*
X68500000Y-112204819D01*
X68500000Y-112204819D02*
X68404762Y-112347676D01*
X68404762Y-112347676D02*
X68309524Y-112442914D01*
X68309524Y-112442914D02*
X68214286Y-112490533D01*
X69763095Y-116204819D02*
X69763095Y-117014342D01*
X69763095Y-117014342D02*
X69810714Y-117109580D01*
X69810714Y-117109580D02*
X69858333Y-117157200D01*
X69858333Y-117157200D02*
X69953571Y-117204819D01*
X69953571Y-117204819D02*
X70144047Y-117204819D01*
X70144047Y-117204819D02*
X70239285Y-117157200D01*
X70239285Y-117157200D02*
X70286904Y-117109580D01*
X70286904Y-117109580D02*
X70334523Y-117014342D01*
X70334523Y-117014342D02*
X70334523Y-116204819D01*
X70763095Y-116300057D02*
X70810714Y-116252438D01*
X70810714Y-116252438D02*
X70905952Y-116204819D01*
X70905952Y-116204819D02*
X71144047Y-116204819D01*
X71144047Y-116204819D02*
X71239285Y-116252438D01*
X71239285Y-116252438D02*
X71286904Y-116300057D01*
X71286904Y-116300057D02*
X71334523Y-116395295D01*
X71334523Y-116395295D02*
X71334523Y-116490533D01*
X71334523Y-116490533D02*
X71286904Y-116633390D01*
X71286904Y-116633390D02*
X70715476Y-117204819D01*
X70715476Y-117204819D02*
X71334523Y-117204819D01*
X73013333Y-102304819D02*
X72680000Y-101828628D01*
X72441905Y-102304819D02*
X72441905Y-101304819D01*
X72441905Y-101304819D02*
X72822857Y-101304819D01*
X72822857Y-101304819D02*
X72918095Y-101352438D01*
X72918095Y-101352438D02*
X72965714Y-101400057D01*
X72965714Y-101400057D02*
X73013333Y-101495295D01*
X73013333Y-101495295D02*
X73013333Y-101638152D01*
X73013333Y-101638152D02*
X72965714Y-101733390D01*
X72965714Y-101733390D02*
X72918095Y-101781009D01*
X72918095Y-101781009D02*
X72822857Y-101828628D01*
X72822857Y-101828628D02*
X72441905Y-101828628D01*
X73346667Y-101304819D02*
X73965714Y-101304819D01*
X73965714Y-101304819D02*
X73632381Y-101685771D01*
X73632381Y-101685771D02*
X73775238Y-101685771D01*
X73775238Y-101685771D02*
X73870476Y-101733390D01*
X73870476Y-101733390D02*
X73918095Y-101781009D01*
X73918095Y-101781009D02*
X73965714Y-101876247D01*
X73965714Y-101876247D02*
X73965714Y-102114342D01*
X73965714Y-102114342D02*
X73918095Y-102209580D01*
X73918095Y-102209580D02*
X73870476Y-102257200D01*
X73870476Y-102257200D02*
X73775238Y-102304819D01*
X73775238Y-102304819D02*
X73489524Y-102304819D01*
X73489524Y-102304819D02*
X73394286Y-102257200D01*
X73394286Y-102257200D02*
X73346667Y-102209580D01*
X87733333Y-113047080D02*
X87685714Y-113094700D01*
X87685714Y-113094700D02*
X87542857Y-113142319D01*
X87542857Y-113142319D02*
X87447619Y-113142319D01*
X87447619Y-113142319D02*
X87304762Y-113094700D01*
X87304762Y-113094700D02*
X87209524Y-112999461D01*
X87209524Y-112999461D02*
X87161905Y-112904223D01*
X87161905Y-112904223D02*
X87114286Y-112713747D01*
X87114286Y-112713747D02*
X87114286Y-112570890D01*
X87114286Y-112570890D02*
X87161905Y-112380414D01*
X87161905Y-112380414D02*
X87209524Y-112285176D01*
X87209524Y-112285176D02*
X87304762Y-112189938D01*
X87304762Y-112189938D02*
X87447619Y-112142319D01*
X87447619Y-112142319D02*
X87542857Y-112142319D01*
X87542857Y-112142319D02*
X87685714Y-112189938D01*
X87685714Y-112189938D02*
X87733333Y-112237557D01*
X88114286Y-112237557D02*
X88161905Y-112189938D01*
X88161905Y-112189938D02*
X88257143Y-112142319D01*
X88257143Y-112142319D02*
X88495238Y-112142319D01*
X88495238Y-112142319D02*
X88590476Y-112189938D01*
X88590476Y-112189938D02*
X88638095Y-112237557D01*
X88638095Y-112237557D02*
X88685714Y-112332795D01*
X88685714Y-112332795D02*
X88685714Y-112428033D01*
X88685714Y-112428033D02*
X88638095Y-112570890D01*
X88638095Y-112570890D02*
X88066667Y-113142319D01*
X88066667Y-113142319D02*
X88685714Y-113142319D01*
X78541009Y-104243769D02*
X78541009Y-104577102D01*
X79064819Y-104577102D02*
X78064819Y-104577102D01*
X78064819Y-104577102D02*
X78064819Y-104100912D01*
X78541009Y-103386626D02*
X78588628Y-103243769D01*
X78588628Y-103243769D02*
X78636247Y-103196150D01*
X78636247Y-103196150D02*
X78731485Y-103148531D01*
X78731485Y-103148531D02*
X78874342Y-103148531D01*
X78874342Y-103148531D02*
X78969580Y-103196150D01*
X78969580Y-103196150D02*
X79017200Y-103243769D01*
X79017200Y-103243769D02*
X79064819Y-103339007D01*
X79064819Y-103339007D02*
X79064819Y-103719959D01*
X79064819Y-103719959D02*
X78064819Y-103719959D01*
X78064819Y-103719959D02*
X78064819Y-103386626D01*
X78064819Y-103386626D02*
X78112438Y-103291388D01*
X78112438Y-103291388D02*
X78160057Y-103243769D01*
X78160057Y-103243769D02*
X78255295Y-103196150D01*
X78255295Y-103196150D02*
X78350533Y-103196150D01*
X78350533Y-103196150D02*
X78445771Y-103243769D01*
X78445771Y-103243769D02*
X78493390Y-103291388D01*
X78493390Y-103291388D02*
X78541009Y-103386626D01*
X78541009Y-103386626D02*
X78541009Y-103719959D01*
X79064819Y-102196150D02*
X79064819Y-102767578D01*
X79064819Y-102481864D02*
X78064819Y-102481864D01*
X78064819Y-102481864D02*
X78207676Y-102577102D01*
X78207676Y-102577102D02*
X78302914Y-102672340D01*
X78302914Y-102672340D02*
X78350533Y-102767578D01*
X68468095Y-104204819D02*
X68468095Y-105014342D01*
X68468095Y-105014342D02*
X68515714Y-105109580D01*
X68515714Y-105109580D02*
X68563333Y-105157200D01*
X68563333Y-105157200D02*
X68658571Y-105204819D01*
X68658571Y-105204819D02*
X68849047Y-105204819D01*
X68849047Y-105204819D02*
X68944285Y-105157200D01*
X68944285Y-105157200D02*
X68991904Y-105109580D01*
X68991904Y-105109580D02*
X69039523Y-105014342D01*
X69039523Y-105014342D02*
X69039523Y-104204819D01*
X69420476Y-104204819D02*
X70039523Y-104204819D01*
X70039523Y-104204819D02*
X69706190Y-104585771D01*
X69706190Y-104585771D02*
X69849047Y-104585771D01*
X69849047Y-104585771D02*
X69944285Y-104633390D01*
X69944285Y-104633390D02*
X69991904Y-104681009D01*
X69991904Y-104681009D02*
X70039523Y-104776247D01*
X70039523Y-104776247D02*
X70039523Y-105014342D01*
X70039523Y-105014342D02*
X69991904Y-105109580D01*
X69991904Y-105109580D02*
X69944285Y-105157200D01*
X69944285Y-105157200D02*
X69849047Y-105204819D01*
X69849047Y-105204819D02*
X69563333Y-105204819D01*
X69563333Y-105204819D02*
X69468095Y-105157200D01*
X69468095Y-105157200D02*
X69420476Y-105109580D01*
X69888095Y-112684819D02*
X69888095Y-113494342D01*
X69888095Y-113494342D02*
X69935714Y-113589580D01*
X69935714Y-113589580D02*
X69983333Y-113637200D01*
X69983333Y-113637200D02*
X70078571Y-113684819D01*
X70078571Y-113684819D02*
X70269047Y-113684819D01*
X70269047Y-113684819D02*
X70364285Y-113637200D01*
X70364285Y-113637200D02*
X70411904Y-113589580D01*
X70411904Y-113589580D02*
X70459523Y-113494342D01*
X70459523Y-113494342D02*
X70459523Y-112684819D01*
X71459523Y-113684819D02*
X70888095Y-113684819D01*
X71173809Y-113684819D02*
X71173809Y-112684819D01*
X71173809Y-112684819D02*
X71078571Y-112827676D01*
X71078571Y-112827676D02*
X70983333Y-112922914D01*
X70983333Y-112922914D02*
X70888095Y-112970533D01*
X78354819Y-117786666D02*
X77878628Y-118119999D01*
X78354819Y-118358094D02*
X77354819Y-118358094D01*
X77354819Y-118358094D02*
X77354819Y-117977142D01*
X77354819Y-117977142D02*
X77402438Y-117881904D01*
X77402438Y-117881904D02*
X77450057Y-117834285D01*
X77450057Y-117834285D02*
X77545295Y-117786666D01*
X77545295Y-117786666D02*
X77688152Y-117786666D01*
X77688152Y-117786666D02*
X77783390Y-117834285D01*
X77783390Y-117834285D02*
X77831009Y-117881904D01*
X77831009Y-117881904D02*
X77878628Y-117977142D01*
X77878628Y-117977142D02*
X77878628Y-118358094D01*
X77354819Y-116881904D02*
X77354819Y-117358094D01*
X77354819Y-117358094D02*
X77831009Y-117405713D01*
X77831009Y-117405713D02*
X77783390Y-117358094D01*
X77783390Y-117358094D02*
X77735771Y-117262856D01*
X77735771Y-117262856D02*
X77735771Y-117024761D01*
X77735771Y-117024761D02*
X77783390Y-116929523D01*
X77783390Y-116929523D02*
X77831009Y-116881904D01*
X77831009Y-116881904D02*
X77926247Y-116834285D01*
X77926247Y-116834285D02*
X78164342Y-116834285D01*
X78164342Y-116834285D02*
X78259580Y-116881904D01*
X78259580Y-116881904D02*
X78307200Y-116929523D01*
X78307200Y-116929523D02*
X78354819Y-117024761D01*
X78354819Y-117024761D02*
X78354819Y-117262856D01*
X78354819Y-117262856D02*
X78307200Y-117358094D01*
X78307200Y-117358094D02*
X78259580Y-117405713D01*
X68670833Y-102259580D02*
X68623214Y-102307200D01*
X68623214Y-102307200D02*
X68480357Y-102354819D01*
X68480357Y-102354819D02*
X68385119Y-102354819D01*
X68385119Y-102354819D02*
X68242262Y-102307200D01*
X68242262Y-102307200D02*
X68147024Y-102211961D01*
X68147024Y-102211961D02*
X68099405Y-102116723D01*
X68099405Y-102116723D02*
X68051786Y-101926247D01*
X68051786Y-101926247D02*
X68051786Y-101783390D01*
X68051786Y-101783390D02*
X68099405Y-101592914D01*
X68099405Y-101592914D02*
X68147024Y-101497676D01*
X68147024Y-101497676D02*
X68242262Y-101402438D01*
X68242262Y-101402438D02*
X68385119Y-101354819D01*
X68385119Y-101354819D02*
X68480357Y-101354819D01*
X68480357Y-101354819D02*
X68623214Y-101402438D01*
X68623214Y-101402438D02*
X68670833Y-101450057D01*
X69623214Y-102354819D02*
X69051786Y-102354819D01*
X69337500Y-102354819D02*
X69337500Y-101354819D01*
X69337500Y-101354819D02*
X69242262Y-101497676D01*
X69242262Y-101497676D02*
X69147024Y-101592914D01*
X69147024Y-101592914D02*
X69051786Y-101640533D01*
X77339580Y-105626666D02*
X77387200Y-105674285D01*
X77387200Y-105674285D02*
X77434819Y-105817142D01*
X77434819Y-105817142D02*
X77434819Y-105912380D01*
X77434819Y-105912380D02*
X77387200Y-106055237D01*
X77387200Y-106055237D02*
X77291961Y-106150475D01*
X77291961Y-106150475D02*
X77196723Y-106198094D01*
X77196723Y-106198094D02*
X77006247Y-106245713D01*
X77006247Y-106245713D02*
X76863390Y-106245713D01*
X76863390Y-106245713D02*
X76672914Y-106198094D01*
X76672914Y-106198094D02*
X76577676Y-106150475D01*
X76577676Y-106150475D02*
X76482438Y-106055237D01*
X76482438Y-106055237D02*
X76434819Y-105912380D01*
X76434819Y-105912380D02*
X76434819Y-105817142D01*
X76434819Y-105817142D02*
X76482438Y-105674285D01*
X76482438Y-105674285D02*
X76530057Y-105626666D01*
X76768152Y-104769523D02*
X77434819Y-104769523D01*
X76387200Y-105007618D02*
X77101485Y-105245713D01*
X77101485Y-105245713D02*
X77101485Y-104626666D01*
X87713333Y-104329580D02*
X87665714Y-104377200D01*
X87665714Y-104377200D02*
X87522857Y-104424819D01*
X87522857Y-104424819D02*
X87427619Y-104424819D01*
X87427619Y-104424819D02*
X87284762Y-104377200D01*
X87284762Y-104377200D02*
X87189524Y-104281961D01*
X87189524Y-104281961D02*
X87141905Y-104186723D01*
X87141905Y-104186723D02*
X87094286Y-103996247D01*
X87094286Y-103996247D02*
X87094286Y-103853390D01*
X87094286Y-103853390D02*
X87141905Y-103662914D01*
X87141905Y-103662914D02*
X87189524Y-103567676D01*
X87189524Y-103567676D02*
X87284762Y-103472438D01*
X87284762Y-103472438D02*
X87427619Y-103424819D01*
X87427619Y-103424819D02*
X87522857Y-103424819D01*
X87522857Y-103424819D02*
X87665714Y-103472438D01*
X87665714Y-103472438D02*
X87713333Y-103520057D01*
X88046667Y-103424819D02*
X88713333Y-103424819D01*
X88713333Y-103424819D02*
X88284762Y-104424819D01*
%TO.C,R1*%
D12*
X66815436Y-109485000D02*
X67269564Y-109485000D01*
X66815436Y-108015000D02*
X67269564Y-108015000D01*
%TO.C,U4*%
D13*
X76950000Y-106885000D02*
X76950000Y-107235000D01*
X76950000Y-106885000D02*
X77300000Y-106885000D01*
X76950000Y-111985000D02*
X76950000Y-111635000D01*
X76950000Y-111985000D02*
X77300000Y-111985000D01*
X82050000Y-106885000D02*
X81700000Y-106885000D01*
X82050000Y-106885000D02*
X82050000Y-107235000D01*
X82050000Y-111985000D02*
X81700000Y-111985000D01*
X82050000Y-111985000D02*
X82050000Y-111635000D01*
D10*
X82400000Y-111685000D02*
G75*
G02*
X82300000Y-111685000I-50000J0D01*
G01*
X82300000Y-111685000D02*
G75*
G02*
X82400000Y-111685000I50000J0D01*
G01*
%TO.C,C8*%
D12*
X75990000Y-118966233D02*
X75990000Y-119258767D01*
X77010000Y-118966233D02*
X77010000Y-119258767D01*
%TO.C,R4*%
X79015000Y-114860436D02*
X79015000Y-115314564D01*
X80485000Y-114860436D02*
X80485000Y-115314564D01*
%TO.C,C5*%
X85103733Y-105661875D02*
X85396267Y-105661875D01*
X85103733Y-106681875D02*
X85396267Y-106681875D01*
%TO.C,C3*%
X85103733Y-110005625D02*
X85396267Y-110005625D01*
X85103733Y-111025625D02*
X85396267Y-111025625D01*
%TO.C,J2*%
X85555000Y-119004000D02*
X85555000Y-118369000D01*
X86190000Y-119004000D02*
X85555000Y-119004000D01*
%TO.C,R2*%
X81265000Y-114860436D02*
X81265000Y-115314564D01*
X82735000Y-114860436D02*
X82735000Y-115314564D01*
%TO.C,C6*%
X85103733Y-107833750D02*
X85396267Y-107833750D01*
X85103733Y-108853750D02*
X85396267Y-108853750D01*
%TO.C,SW1*%
X89125000Y-108450000D02*
X89125000Y-111050000D01*
X89575000Y-108000000D02*
X89125000Y-108450000D01*
X89575000Y-111500000D02*
X89125000Y-111050000D01*
X92875000Y-107000000D02*
X90875000Y-107000000D01*
X92875000Y-112500000D02*
X90875000Y-112500000D01*
X94175000Y-108000000D02*
X94625000Y-108450000D01*
X94175000Y-111500000D02*
X94625000Y-111050000D01*
X94625000Y-108450000D02*
X94625000Y-111050000D01*
%TO.C,D1*%
X66315000Y-110040000D02*
X66315000Y-111960000D01*
X66315000Y-111960000D02*
X69000000Y-111960000D01*
X69000000Y-110040000D02*
X66315000Y-110040000D01*
%TO.C,U2*%
X68465000Y-114095000D02*
X72585000Y-114095000D01*
X68465000Y-114190000D02*
X68465000Y-114095000D01*
X68465000Y-119215000D02*
X68465000Y-119120000D01*
X72585000Y-114095000D02*
X72585000Y-114190000D01*
X72585000Y-119120000D02*
X72585000Y-119215000D01*
X72585000Y-119215000D02*
X68465000Y-119215000D01*
X67925000Y-114185000D02*
X67685000Y-113855000D01*
X68165000Y-113855000D01*
X67925000Y-114185000D01*
G36*
X67925000Y-114185000D02*
G01*
X67685000Y-113855000D01*
X68165000Y-113855000D01*
X67925000Y-114185000D01*
G37*
%TO.C,R3*%
X73477064Y-102515000D02*
X73022936Y-102515000D01*
X73477064Y-103985000D02*
X73022936Y-103985000D01*
%TO.C,C2*%
X85103733Y-112177500D02*
X85396267Y-112177500D01*
X85103733Y-113197500D02*
X85396267Y-113197500D01*
%TO.C,FB1*%
X79521667Y-103864564D02*
X79521667Y-103410436D01*
X80991667Y-103864564D02*
X80991667Y-103410436D01*
%TO.C,U3*%
X71090000Y-105490000D02*
X72910000Y-105490000D01*
X71090000Y-105540000D02*
X71090000Y-105490000D01*
X71090000Y-108610000D02*
X71090000Y-108560000D01*
X72910000Y-105490000D02*
X72910000Y-105540000D01*
X72910000Y-106660000D02*
X72910000Y-107440000D01*
X72910000Y-108560000D02*
X72910000Y-108610000D01*
X72910000Y-108610000D02*
X71090000Y-108610000D01*
X70550000Y-105540000D02*
X70310000Y-105210000D01*
X70790000Y-105210000D01*
X70550000Y-105540000D01*
G36*
X70550000Y-105540000D02*
G01*
X70310000Y-105210000D01*
X70790000Y-105210000D01*
X70550000Y-105540000D01*
G37*
%TO.C,U1*%
X72014417Y-109640000D02*
X73834417Y-109640000D01*
X72014417Y-109690000D02*
X72014417Y-109640000D01*
X72014417Y-112760000D02*
X72014417Y-112710000D01*
X73834417Y-109640000D02*
X73834417Y-109690000D01*
X73834417Y-112710000D02*
X73834417Y-112760000D01*
X73834417Y-112760000D02*
X72014417Y-112760000D01*
X74374417Y-112710000D02*
X74614417Y-113040000D01*
X74134417Y-113040000D01*
X74374417Y-112710000D01*
G36*
X74614417Y-113040000D02*
G01*
X74134417Y-113040000D01*
X74374417Y-112710000D01*
X74614417Y-113040000D01*
G37*
%TO.C,R5*%
X76765000Y-114860436D02*
X76765000Y-115314564D01*
X78235000Y-114860436D02*
X78235000Y-115314564D01*
%TO.C,C1*%
X68983767Y-102740000D02*
X68691233Y-102740000D01*
X68983767Y-103760000D02*
X68691233Y-103760000D01*
%TO.C,C4*%
X74740000Y-106396267D02*
X74740000Y-106103733D01*
X75760000Y-106396267D02*
X75760000Y-106103733D01*
%TO.C,C7*%
X85103733Y-103490000D02*
X85396267Y-103490000D01*
X85103733Y-104510000D02*
X85396267Y-104510000D01*
%TD*%
M02*
