%TF.GenerationSoftware,KiCad,Pcbnew,10.0.5*%
%TF.CreationDate,2026-08-09T23:56:19+03:00*%
%TF.ProjectId,2FA Key,32464120-4b65-4792-9e6b-696361645f70,rev?*%
%TF.SameCoordinates,Original*%
%TF.FileFunction,Soldermask,Top*%
%TF.FilePolarity,Negative*%
%FSLAX46Y46*%
G04 Gerber Fmt 4.6, Leading zero omitted, Abs format (unit mm)*
G04 Created by KiCad (PCBNEW 10.0.5) date 2026-08-09 23:56:19*
%MOMM*%
%LPD*%
G01*
G04 APERTURE LIST*
G04 Aperture macros list*
%AMRoundRect*
0 Rectangle with rounded corners*
0 $1 Rounding radius*
0 $2 $3 $4 $5 $6 $7 $8 $9 X,Y pos of 4 corners*
0 Add a 4 corners polygon primitive as box body*
4,1,4,$2,$3,$4,$5,$6,$7,$8,$9,$2,$3,0*
0 Add four circle primitives for the rounded corners*
1,1,$1+$1,$2,$3*
1,1,$1+$1,$4,$5*
1,1,$1+$1,$6,$7*
1,1,$1+$1,$8,$9*
0 Add four rect primitives between the rounded corners*
20,1,$1+$1,$2,$3,$4,$5,0*
20,1,$1+$1,$4,$5,$6,$7,0*
20,1,$1+$1,$6,$7,$8,$9,0*
20,1,$1+$1,$8,$9,$2,$3,0*%
G04 Aperture macros list end*
%ADD10RoundRect,0.250000X-0.262500X-0.450000X0.262500X-0.450000X0.262500X0.450000X-0.262500X0.450000X0*%
%ADD11RoundRect,0.119500X0.362500X0.057500X-0.362500X0.057500X-0.362500X-0.057500X0.362500X-0.057500X0*%
%ADD12RoundRect,0.119500X0.057500X0.362500X-0.057500X0.362500X-0.057500X-0.362500X0.057500X-0.362500X0*%
%ADD13RoundRect,0.102000X1.750000X1.750000X-1.750000X1.750000X-1.750000X-1.750000X1.750000X-1.750000X0*%
%ADD14RoundRect,0.237500X-0.237500X0.300000X-0.237500X-0.300000X0.237500X-0.300000X0.237500X0.300000X0*%
%ADD15RoundRect,0.250000X-0.450000X0.262500X-0.450000X-0.262500X0.450000X-0.262500X0.450000X0.262500X0*%
%ADD16RoundRect,0.237500X-0.300000X-0.237500X0.300000X-0.237500X0.300000X0.237500X-0.300000X0.237500X0*%
%ADD17C,0.990600*%
%ADD18C,0.787400*%
%ADD19R,0.750000X1.000000*%
%ADD20RoundRect,0.243750X-0.243750X-0.456250X0.243750X-0.456250X0.243750X0.456250X-0.243750X0.456250X0*%
%ADD21RoundRect,0.150000X-0.825000X-0.150000X0.825000X-0.150000X0.825000X0.150000X-0.825000X0.150000X0*%
%ADD22RoundRect,0.250000X0.262500X0.450000X-0.262500X0.450000X-0.262500X-0.450000X0.262500X-0.450000X0*%
%ADD23RoundRect,0.250000X0.450000X-0.262500X0.450000X0.262500X-0.450000X0.262500X-0.450000X-0.262500X0*%
%ADD24RoundRect,0.150000X-0.512500X-0.150000X0.512500X-0.150000X0.512500X0.150000X-0.512500X0.150000X0*%
%ADD25RoundRect,0.250000X-3.250000X-0.750000X3.250000X-0.750000X3.250000X0.750000X-3.250000X0.750000X0*%
%ADD26RoundRect,0.250000X-2.750000X-0.500000X2.750000X-0.500000X2.750000X0.500000X-2.750000X0.500000X0*%
%ADD27RoundRect,0.150000X0.512500X0.150000X-0.512500X0.150000X-0.512500X-0.150000X0.512500X-0.150000X0*%
%ADD28RoundRect,0.237500X0.300000X0.237500X-0.300000X0.237500X-0.300000X-0.237500X0.300000X-0.237500X0*%
%ADD29RoundRect,0.237500X0.237500X-0.300000X0.237500X0.300000X-0.237500X0.300000X-0.237500X-0.300000X0*%
G04 APERTURE END LIST*
D10*
%TO.C,R1*%
X67955000Y-108750000D03*
X66130000Y-108750000D03*
%TD*%
D11*
%TO.C,U4*%
X81935000Y-111185000D03*
X81935000Y-110685000D03*
X81935000Y-110185000D03*
X81935000Y-109685000D03*
X81935000Y-109185000D03*
X81935000Y-108685000D03*
X81935000Y-108185000D03*
X81935000Y-107685000D03*
D12*
X81250000Y-107000000D03*
X80750000Y-107000000D03*
X80250000Y-107000000D03*
X79750000Y-107000000D03*
X79250000Y-107000000D03*
X78750000Y-107000000D03*
X78250000Y-107000000D03*
X77750000Y-107000000D03*
D11*
X77065000Y-107685000D03*
X77065000Y-108185000D03*
X77065000Y-108685000D03*
X77065000Y-109185000D03*
X77065000Y-109685000D03*
X77065000Y-110185000D03*
X77065000Y-110685000D03*
X77065000Y-111185000D03*
D12*
X77750000Y-111870000D03*
X78250000Y-111870000D03*
X78750000Y-111870000D03*
X79250000Y-111870000D03*
X79750000Y-111870000D03*
X80250000Y-111870000D03*
X80750000Y-111870000D03*
X81250000Y-111870000D03*
D13*
X79500000Y-109435000D03*
%TD*%
D14*
%TO.C,C8*%
X76500000Y-118250000D03*
X76500000Y-119975000D03*
%TD*%
D15*
%TO.C,R4*%
X79750000Y-114175000D03*
X79750000Y-116000000D03*
%TD*%
D16*
%TO.C,C5*%
X84387500Y-106171875D03*
X86112500Y-106171875D03*
%TD*%
%TO.C,C3*%
X84387500Y-110515625D03*
X86112500Y-110515625D03*
%TD*%
D17*
%TO.C,J2*%
X84920000Y-117734000D03*
X90000000Y-116718000D03*
X90000000Y-118750000D03*
D18*
X86190000Y-118369000D03*
X86190000Y-117099000D03*
X87460000Y-118369000D03*
X87460000Y-117099000D03*
X88730000Y-118369000D03*
X88730000Y-117099000D03*
%TD*%
D15*
%TO.C,R2*%
X82000000Y-114175000D03*
X82000000Y-116000000D03*
%TD*%
D16*
%TO.C,C6*%
X84387500Y-108343750D03*
X86112500Y-108343750D03*
%TD*%
D19*
%TO.C,SW1*%
X93750000Y-106750000D03*
X93750000Y-112750000D03*
X90000000Y-106750000D03*
X90000000Y-112750000D03*
%TD*%
D20*
%TO.C,D1*%
X67062500Y-111000000D03*
X68937500Y-111000000D03*
%TD*%
D21*
%TO.C,U2*%
X68050000Y-114750000D03*
X68050000Y-116020000D03*
X68050000Y-117290000D03*
X68050000Y-118560000D03*
X73000000Y-118560000D03*
X73000000Y-117290000D03*
X73000000Y-116020000D03*
X73000000Y-114750000D03*
%TD*%
D22*
%TO.C,R3*%
X74162500Y-103250000D03*
X72337500Y-103250000D03*
%TD*%
D16*
%TO.C,C2*%
X84387500Y-112687500D03*
X86112500Y-112687500D03*
%TD*%
D23*
%TO.C,FB1*%
X80256667Y-104550000D03*
X80256667Y-102725000D03*
%TD*%
D24*
%TO.C,U3*%
X70862500Y-106100000D03*
X70862500Y-107050000D03*
X70862500Y-108000000D03*
X73137500Y-108000000D03*
X73137500Y-106100000D03*
%TD*%
D25*
%TO.C,J1*%
X56250000Y-115000000D03*
D26*
X56250000Y-112250000D03*
X56250000Y-110250000D03*
D25*
X56250000Y-107500000D03*
%TD*%
D27*
%TO.C,U1*%
X74061917Y-112150000D03*
X74061917Y-111200000D03*
X74061917Y-110250000D03*
X71786917Y-110250000D03*
X71786917Y-111200000D03*
X71786917Y-112150000D03*
%TD*%
D15*
%TO.C,R5*%
X77500000Y-114175000D03*
X77500000Y-116000000D03*
%TD*%
D28*
%TO.C,C1*%
X69700000Y-103250000D03*
X67975000Y-103250000D03*
%TD*%
D29*
%TO.C,C4*%
X75250000Y-107112500D03*
X75250000Y-105387500D03*
%TD*%
D16*
%TO.C,C7*%
X84387500Y-104000000D03*
X86112500Y-104000000D03*
%TD*%
M02*
